<?xml version="1.0" standalone="no"?>
<!DOCTYPE svg PUBLIC "-//W3C//DTD SVG 20010904//EN"
 "http://www.w3.org/TR/2001/REC-SVG-20010904/DTD/svg10.dtd">
<svg version="1.0" xmlns="http://www.w3.org/2000/svg"
 width="200.000000pt" height="200.000000pt" viewBox="0 0 200.000000 200.000000"
 preserveAspectRatio="xMidYMid meet">
<metadata>
Created by potrace 1.14, written by Peter Selinger 2001-2017
</metadata>
<g transform="translate(0.000000,200.000000) scale(0.100000,-0.100000)"
fill="#000000" stroke="none">
<path d="M830 1665 c-75 -74 -139 -135 -142 -135 -4 0 -6 19 -6 43 0 23 0 59
-1 80 l-1 38 -80 -2 -80 -2 3 -163 4 -163 -205 -203 c-112 -112 -208 -211
-214 -222 -17 -31 -1 -80 32 -100 47 -27 78 -14 160 69 40 41 76 72 79 70 3
-2 6 -161 6 -355 -1 -381 2 -404 50 -416 20 -5 32 -1 48 15 22 21 22 25 23
457 l1 436 247 245 247 244 251 -250 252 -251 1 -422 c0 -312 4 -429 13 -445
24 -43 80 -41 100 3 8 17 12 134 12 382 l0 356 73 -71 c79 -78 111 -92 157
-68 32 17 49 69 32 101 -14 27 -839 848 -860 856 -49 19 -64 10 -202 -127z"/>
<path d="M1157 1138 c-6 -61 -35 -130 -83 -204 -56 -84 -81 -151 -83 -222 -1
-21 -8 -18 -75 37 -86 70 -116 105 -116 134 0 34 -10 13 -27 -54 -22 -94 -21
-261 2 -327 34 -95 105 -155 199 -166 21 -3 41 -7 44 -11 3 -3 1 -24 -5 -46
-9 -35 -8 -41 8 -49 15 -8 19 -4 30 28 6 20 31 66 54 102 23 36 51 88 62 115
27 64 61 221 56 260 -3 26 -2 28 8 11 15 -24 5 -151 -15 -218 -17 -54 -9 -61
42 -34 93 49 128 180 89 336 -19 75 -100 243 -150 313 l-34 48 -6 -53z m-187
-598 c88 -80 120 -131 99 -156 -10 -13 -14 -10 -26 13 -7 16 -45 62 -84 103
-75 80 -102 123 -113 180 -7 31 -5 30 17 -15 16 -35 51 -75 107 -125z m154
-81 c-19 -38 -24 -37 -24 5 0 29 3 33 20 29 18 -5 18 -7 4 -34z"/>
</g>
</svg>
