<?xml version="1.0" standalone="no"?>
<!DOCTYPE svg PUBLIC "-//W3C//DTD SVG 20010904//EN"
 "http://www.w3.org/TR/2001/REC-SVG-20010904/DTD/svg10.dtd">
<svg version="1.0" xmlns="http://www.w3.org/2000/svg"
 width="200.000000pt" height="200.000000pt" viewBox="0 0 200.000000 200.000000"
 preserveAspectRatio="xMidYMid meet">
<metadata>
Created by potrace 1.14, written by Peter Selinger 2001-2017
</metadata>
<g transform="translate(0.000000,200.000000) scale(0.100000,-0.100000)"
fill="#000000" stroke="none">
<path d="M823 1658 l-143 -142 0 87 0 87 -81 0 -81 0 3 -165 4 -164 -212 -214
c-236 -236 -240 -242 -183 -299 46 -46 78 -35 172 59 l77 77 3 -365 c3 -329 5
-368 21 -392 21 -33 56 -35 83 -6 18 20 19 45 22 458 l3 437 244 244 245 245
250 -250 250 -250 0 -413 c0 -454 2 -475 56 -488 22 -6 32 -2 51 20 l23 27 0
362 0 361 73 -72 c89 -89 121 -99 167 -54 60 61 74 43 -403 519 -401 401 -435
433 -466 433 -31 0 -50 -15 -178 -142z"/>
<path d="M1160 1157 c0 -53 -32 -137 -84 -221 -55 -88 -74 -134 -82 -196 l-6
-48 -63 49 c-74 58 -125 113 -125 135 0 27 -18 5 -24 -31 -56 -298 7 -471 184
-506 64 -12 70 -21 50 -73 -8 -21 -6 -27 10 -36 16 -9 20 -5 31 28 6 20 25 56
41 80 74 107 127 270 129 389 0 50 2 54 11 33 13 -32 4 -169 -16 -232 -13 -44
-13 -48 2 -48 30 0 80 38 109 81 39 59 45 186 13 290 -25 84 -81 198 -139 284
l-41 60 0 -38z m-188 -620 c95 -86 121 -128 96 -154 -14 -14 -17 -13 -23 7 -4
12 -41 58 -82 103 -73 80 -123 161 -123 202 0 11 10 -2 24 -30 16 -35 49 -74
108 -128z m155 -45 c9 -6 7 -15 -7 -37 l-20 -30 0 38 c0 37 5 43 27 29z"/>
</g>
</svg>
